<?xml version="1.0" encoding="UTF-8" standalone="no"?>
<!DOCTYPE svg PUBLIC "-//W3C//DTD SVG 1.1//EN" "http://www.w3.org/Graphics/SVG/1.1/DTD/svg11.dtd">
<svg width="100%" height="100%" viewBox="0 0 278 82" version="1.1" xmlns="http://www.w3.org/2000/svg" xmlns:xlink="http://www.w3.org/1999/xlink" xml:space="preserve" xmlns:serif="http://www.serif.com/" style="fill-rule:evenodd;clip-rule:evenodd;stroke-linejoin:round;stroke-miterlimit:2;">
    <g transform="matrix(1,0,0,1,-409.953,-3753.99)">
        <g transform="matrix(1,0,0,1,0,331)">
            <g id="logo3" transform="matrix(0.354613,0,0,0.354613,273.368,3117.35)">
                <g transform="matrix(0.521947,0,0,0.381554,124.271,715.003)">
                    <path d="M1040,439.3C1040,409.331 1022.21,385 1000.31,385L539.694,385C517.786,385 500,409.331 500,439.3L500,692.7C500,722.669 517.786,747 539.694,747L1000.31,747C1022.21,747 1040,722.669 1040,692.7L1040,439.3Z" style="fill:rgb(0,107,255);"/>
                </g>
                <g transform="matrix(1.03432,0,0,1.03432,-119.687,668.633)">
                    <text x="505.064px" y="306.325px" style="font-family:'Arial-BoldMT', 'Arial', sans-serif;font-weight:700;font-size:151px;fill:white;">VIP</text>
                </g>
                <g transform="matrix(1,0,0,1,169.754,680.666)">
                    <text x="505.064px" y="306.325px" style="font-family:'ArialMT', 'Arial', sans-serif;font-size:151px;fill:rgb(0,107,255);">Kredyt</text>
                </g>
                <g transform="matrix(0.540137,0,0,0.540137,105.671,924.089)">
                    <text x="505.064px" y="306.325px" style="font-family:'ArialMT', 'Arial', sans-serif;font-size:151px;fill:rgb(34,34,34);">Finansowanie dla ﬁrm</text>
                </g>
            </g>
        </g>
    </g>
</svg>
